HIERARCHY
ROOT Hips
{
	OFFSET 0.000000 0.000000 0.000000
	CHANNELS 6 Xposition Yposition Zposition Zrotation Yrotation Xrotation 
	JOINT LHipJoint
	{
		OFFSET 0.000000 0.000000 0.000000
		CHANNELS 3 Zrotation Yrotation Xrotation
		JOINT LeftUpLeg
		{
			OFFSET 1.363060 -1.794630 0.839290
			CHANNELS 3 Zrotation Yrotation Xrotation
			JOINT LeftLeg
			{
				OFFSET 2.448110 -6.726130 0.000000
				CHANNELS 3 Zrotation Yrotation Xrotation
				JOINT LeftFoot
				{
					OFFSET 2.562200 -7.039590 0.000000
					CHANNELS 3 Zrotation Yrotation Xrotation
					JOINT LeftToeBase
					{
						OFFSET 0.157640 -0.433110 2.322550
						CHANNELS 3 Zrotation Yrotation Xrotation
						End Site
						{
							OFFSET 0.000000 0.000000 0.000000
						}
					}
				}
			}
		}
	}
	JOINT RHipJoint
	{
		OFFSET 0.000000 0.000000 0.000000
		CHANNELS 3 Zrotation Yrotation Xrotation
		JOINT RightUpLeg
		{
			OFFSET -1.305520 -1.794630 0.839290
			CHANNELS 3 Zrotation Yrotation Xrotation
			JOINT RightLeg
			{
				OFFSET -2.542530 -6.985550 0.000000
				CHANNELS 3 Zrotation Yrotation Xrotation
				JOINT RightFoot
				{
					OFFSET -2.568260 -7.056230 0.000000
					CHANNELS 3 Zrotation Yrotation Xrotation
					JOINT RightToeBase
					{
						OFFSET -0.164730 -0.452590 2.363150
						CHANNELS 3 Zrotation Yrotation Xrotation
						End Site
						{
							OFFSET 0.000000 0.000000 0.000000
						}
					}
				}
			}
		}
	}
	JOINT LowerBack
	{
		OFFSET 0.000000 0.000000 0.000000
		CHANNELS 3 Zrotation Yrotation Xrotation
		JOINT Spine
		{
			OFFSET 0.028270 2.035590 -0.193380
			CHANNELS 3 Zrotation Yrotation Xrotation
			JOINT Spine1
			{
				OFFSET 0.056720 2.048850 -0.042750
				CHANNELS 3 Zrotation Yrotation Xrotation
				JOINT Neck
				{
					OFFSET 0.000000 0.000000 0.000000
					CHANNELS 3 Zrotation Yrotation Xrotation
					JOINT Neck1
					{
						OFFSET -0.054170 1.746240 0.172020
						CHANNELS 3 Zrotation Yrotation Xrotation
						JOINT Head
						{
							OFFSET 0.104070 1.761360 -0.123970
							CHANNELS 3 Zrotation Yrotation Xrotation
							End Site
							{
								OFFSET 0.000000 0.000000 0.000000
							}
						}
					}
				}
				JOINT LeftShoulder
				{
					OFFSET 0.000000 0.000000 0.000000
					CHANNELS 3 Zrotation Yrotation Xrotation
					JOINT LeftArm
					{
						OFFSET 3.362410 1.200890 -0.311210
						CHANNELS 3 Zrotation Yrotation Xrotation
						JOINT LeftForeArm
						{
							OFFSET 4.983000 -0.000000 -0.000000
							CHANNELS 3 Zrotation Yrotation Xrotation
							JOINT LeftHand
							{
								OFFSET 3.483560 -0.000000 -0.000000
								CHANNELS 3 Zrotation Yrotation Xrotation
								JOINT LeftFingerBase
								{
									OFFSET 0.000000 0.000000 0.000000
									CHANNELS 3 Zrotation Yrotation Xrotation
									JOINT LeftHandIndex1
									{
										OFFSET 0.715260 -0.000000 -0.000000
										CHANNELS 3 Zrotation Yrotation Xrotation
										End Site
										{
											OFFSET 0.000000 0.000000 0.000000
										}
									}
								}
								JOINT LThumb
								{
									OFFSET 0.000000 0.000000 0.000000
									CHANNELS 3 Zrotation Yrotation Xrotation
									End Site
									{
										OFFSET 0.000000 0.000000 0.000000
									}
								}
							}
						}
					}
				}
				JOINT RightShoulder
				{
					OFFSET 0.000000 0.000000 0.000000
					CHANNELS 3 Zrotation Yrotation Xrotation
					JOINT RightArm
					{
						OFFSET -3.136600 1.374050 -0.404650
						CHANNELS 3 Zrotation Yrotation Xrotation
						JOINT RightForeArm
						{
							OFFSET -5.241900 -0.000000 -0.000000
							CHANNELS 3 Zrotation Yrotation Xrotation
							JOINT RightHand
							{
								OFFSET -3.444170 -0.000000 -0.000000
								CHANNELS 3 Zrotation Yrotation Xrotation
								JOINT RightFingerBase
								{
									OFFSET 0.000000 0.000000 0.000000
									CHANNELS 3 Zrotation Yrotation Xrotation
									JOINT RightHandIndex1
									{
										OFFSET -0.622530 -0.000000 -0.000000
										CHANNELS 3 Zrotation Yrotation Xrotation
										End Site
										{
											OFFSET 0.000000 0.000000 0.000000
										}
									}
								}
								JOINT RThumb
								{
									OFFSET 0.000000 0.000000 0.000000
									CHANNELS 3 Zrotation Yrotation Xrotation
									End Site
									{
										OFFSET 0.000000 0.000000 0.000000
									}
								}
							}
						}
					}
				}
			}
		}
	}
}
MOTION
Frames: 10
Frame Time: 0.008333
-11.187442 16.757118 -0.336997 -14.033619 84.268636 12.239546 -11.562812 2.550833 -2.416408 -4.689256 6.803235 -6.712441 -1.582055 0.986841 21.073304 0.152263 -1.282087 4.315129 -0.176700 0.000000 -78.831200 7.921915 0.187815 2.670874 8.144669 9.518935 -48.257847 2.666883 -0.563685 17.017072 -0.536390 -2.645318 2.788135 -1.317600 0.000000 -28.498000 9.137002 -2.316024 2.670021 1.094204 -2.701915 -2.306756 -6.738611 -2.792957 0.741489 16.721801 1.310057 2.625286 -3.540992 -0.330678 2.468866 0.000000 0.000000 0.000000 -4.954059 -5.517385 1.503663 -61.233146 -28.202665 18.945164 -2.578884 -46.109554 -0.018562 6.331023 -2.631375 -0.163056 -0.169219 0.261513 -0.000000 0.000000 0.000000 0.000000 0.000000 0.000000 0.000000 20.578717 -1.522828 1.002277 56.490549 12.397583 -4.531239 3.139166 26.777269 0.010159 1.229525 7.905124 0.081900 0.059143 -0.067294 -0.000000 0.000000 0.000000 0.000000 0.000000 0.000000 0.000000 
-11.003556 16.748619 -0.311862 -18.150883 84.743202 8.173209 -11.642481 2.512334 -2.329568 -4.066364 6.564371 -7.413352 -1.376490 1.118787 23.050718 0.191880 -1.339436 5.560059 -0.241900 0.000001 -80.196301 7.878390 0.072175 2.609473 8.537014 9.542297 -48.643403 2.596813 -0.818552 19.275130 -0.637106 -2.849507 1.788735 -1.277300 0.000000 -27.409900 9.898776 -2.334494 2.603084 1.263021 -2.756110 -2.328658 -6.714227 -2.853356 0.738410 16.637470 1.541170 2.697097 -3.561160 -0.331876 2.491348 0.000000 0.000000 0.000000 -5.244892 -5.594922 1.505438 -61.672095 -27.744375 18.318952 -2.608533 -44.895354 -0.019277 6.628068 -2.725929 -0.175991 -0.168540 0.257595 0.000000 0.000000 0.000000 0.000000 0.000000 0.000000 0.000000 20.567624 -1.443911 0.979964 56.373511 12.676696 -5.740235 3.172081 25.441088 0.010095 0.823345 7.991874 0.053989 0.061666 -0.066569 -0.000000 0.000000 0.000000 0.000000 0.000000 0.000000 0.000000 
-10.823489 16.745691 -0.286656 -22.861544 85.225051 3.466037 -11.744782 2.435171 -2.274974 -3.443423 6.422570 -8.174923 -1.147555 1.240523 25.152948 0.244635 -1.385286 6.983310 -0.320300 0.000000 -80.968000 7.809566 -0.072475 2.525022 8.994296 9.475930 -48.855638 2.561515 -1.048121 21.313388 -0.728270 -2.971412 0.602545 -1.196700 0.000001 -26.673400 10.610220 -2.371036 2.588670 1.424884 -2.821133 -2.339894 -6.680632 -2.924422 0.732559 16.568067 1.819270 2.787814 -3.571757 -0.332615 2.517251 0.000000 0.000000 0.000000 -5.482727 -5.677335 1.502370 -62.177760 -27.292314 17.627157 -2.631625 -43.574268 -0.020205 6.978581 -2.802153 -0.189634 -0.167789 0.253208 0.000000 0.000000 0.000000 0.000000 0.000000 0.000000 0.000000 20.527817 -1.320610 0.955739 56.319560 13.005038 -7.092875 3.197694 23.976143 0.009946 0.389341 8.056372 0.023479 0.063857 -0.066203 -0.000000 0.000000 0.000000 0.000000 0.000000 0.000000 0.000000 
-10.647513 16.747736 -0.260450 -27.898242 85.680632 -1.612770 -11.879997 2.322952 -2.251127 -2.848303 6.373074 -8.983610 -0.902039 1.350566 27.349055 0.316083 -1.374762 8.547821 -0.401499 0.000000 -80.992500 7.707925 -0.241728 2.419768 9.491618 9.342593 -48.867812 2.558487 -1.244328 23.073446 -0.812771 -3.041557 -0.711467 -1.090200 -0.000000 -26.242700 11.229027 -2.419952 2.624763 1.569914 -2.889496 -2.340287 -6.637921 -2.998463 0.726441 16.516580 2.136832 2.894737 -3.572434 -0.332885 2.545750 0.000000 0.000000 0.000000 -5.658933 -5.757121 1.494147 -62.728914 -26.848905 16.886745 -2.647263 -42.168553 -0.021274 7.370511 -2.852673 -0.203183 -0.166922 0.248226 0.000000 0.000000 0.000000 0.000000 0.000000 0.000000 0.000000 20.461759 -1.154323 0.930101 56.338677 13.385848 -8.585766 3.214571 22.393649 0.009697 -0.067715 8.091160 -0.009233 0.065686 -0.066252 -0.000000 0.000000 0.000000 0.000000 0.000000 0.000000 0.000000 
-10.475786 16.754018 -0.231958 -32.652760 86.065015 -6.450721 -12.038582 2.193328 -2.253373 -2.330105 6.393044 -9.819293 -0.654966 1.452513 29.597729 0.411556 -1.241121 10.194666 -0.462500 -0.000001 -80.122500 7.586489 -0.410170 2.290943 9.991802 9.154256 -48.675787 2.579378 -1.402108 24.542715 -0.889451 -3.066791 -2.095304 -0.965800 -0.000000 -26.044900 11.707479 -2.468081 2.712705 1.685617 -2.946295 -2.328036 -6.588106 -3.060208 0.724054 16.488440 2.468616 3.011297 -3.565417 -0.332796 2.574927 0.000000 0.000000 0.000000 -5.757179 -5.829184 1.477638 -63.303787 -26.408526 16.113065 -2.654582 -40.707749 -0.022378 7.784898 -2.874931 -0.215637 -0.165800 0.242499 0.000000 0.000000 0.000000 0.000000 0.000000 0.000000 0.000000 20.387417 -0.963851 0.904403 56.429305 13.844353 -10.167451 3.222098 20.698889 0.009337 -0.557913 8.098395 -0.044345 0.067263 -0.066758 -0.000000 0.000000 0.000000 0.000000 0.000000 0.000000 0.000000 
-10.308072 16.763701 -0.200802 -36.980788 86.365107 -10.894666 -12.207685 2.052893 -2.280228 -1.881876 6.484339 -10.685448 -0.418123 1.549033 31.885360 0.530882 -0.954437 11.845350 -0.481100 0.000000 -78.273300 7.456086 -0.566492 2.147712 10.487500 8.947720 -48.278069 2.617208 -1.517126 25.695951 -0.962890 -3.082279 -3.475966 -0.837199 -0.000000 -26.006900 12.061375 -2.506809 2.844634 1.774275 -2.984461 -2.305187 -6.532996 -3.102690 0.723235 16.479756 2.833536 3.140704 -3.548750 -0.332292 2.605980 0.000000 0.000000 0.000000 -5.795292 -5.881059 1.458214 -63.869654 -25.974745 15.346869 -2.655802 -39.221383 -0.023416 8.199577 -2.859131 -0.225295 -0.164497 0.236022 0.000000 0.000000 0.000000 0.000000 0.000000 0.000000 0.000000 20.290096 -0.718557 0.879142 56.606447 14.327905 -11.879907 3.218188 18.950814 0.008845 -1.049321 8.060763 -0.079158 0.068416 -0.067732 -0.000000 0.000000 0.000000 0.000000 0.000000 0.000000 0.000000 
-10.144056 16.776003 -0.166087 -40.388915 86.573568 -14.443144 -12.356729 1.917526 -2.327814 -1.535284 6.618111 -11.571019 -0.205211 1.644570 34.182320 0.672505 -0.460290 13.411236 -0.422600 0.000000 -75.411200 7.345885 -0.687644 1.992116 10.946127 8.726246 -47.700382 2.661694 -1.591902 26.560105 -1.031274 -3.087266 -4.800797 -0.708700 0.000000 -26.035800 12.281924 -2.528452 3.016147 1.832403 -2.996942 -2.269922 -6.476116 -3.118458 0.731517 16.493100 3.181133 3.269568 -3.527490 -0.331569 2.635266 0.000000 0.000000 0.000000 -5.765652 -5.910547 1.432355 -64.407201 -25.543760 14.613434 -2.652351 -37.742639 -0.024256 8.586746 -2.806596 -0.231253 -0.162916 0.228767 0.000000 0.000000 0.000000 0.000000 0.000000 0.000000 0.000000 20.198214 -0.470392 0.854589 56.848037 14.890459 -13.597814 3.204702 17.150526 0.008241 -1.568037 7.992637 -0.115170 0.069451 -0.069103 -0.000000 0.000000 0.000000 0.000000 0.000000 0.000000 0.000000 
-9.983256 16.790247 -0.127831 -42.880422 86.710480 -17.091581 -12.471799 1.788771 -2.393690 -1.282693 6.783469 -12.479770 -0.021021 1.740353 36.476200 0.830993 0.260847 14.804350 -0.260600 -0.000000 -71.625600 7.266448 -0.773247 1.834037 11.357369 8.506545 -46.968166 2.706433 -1.630252 27.151450 -1.096618 -3.101568 -6.017466 -0.588000 0.000000 -26.051900 12.394208 -2.533179 3.213997 1.865492 -2.986366 -2.226359 -6.418897 -3.110410 0.743998 16.523874 3.535174 3.402839 -3.500058 -0.330619 2.664633 0.000000 0.000000 0.000000 -5.691022 -5.916766 1.407459 -64.887792 -25.110691 13.955434 -2.648504 -36.303253 -0.024809 8.917889 -2.709994 -0.231808 -0.161180 0.220863 0.000000 0.000000 0.000000 0.000000 0.000000 0.000000 0.000000 20.098397 -0.188978 0.830652 57.163332 15.462191 -15.338662 3.179949 15.379309 0.007509 -2.080838 7.879620 -0.149283 0.070192 -0.070764 -0.000000 0.000000 0.000000 0.000000 0.000000 0.000000 0.000000 
-9.825141 16.805992 -0.086150 -44.426607 86.796652 -18.803153 -12.543356 1.669723 -2.473636 -1.128245 6.960580 -13.414106 0.132568 1.837885 38.746997 1.000722 1.222582 15.948080 0.024100 0.000000 -67.118899 7.226176 -0.823059 1.679797 11.705010 8.292690 -46.118448 2.745424 -1.638392 27.507016 -1.158327 -3.131298 -7.091134 -0.478800 0.000000 -25.990300 12.409801 -2.522031 3.425755 1.875979 -2.955736 -2.176861 -6.363154 -3.081535 0.761676 16.568152 3.878923 3.535271 -3.468791 -0.329553 2.692974 0.000000 0.000000 0.000000 -5.584329 -5.902528 1.385469 -65.293851 -24.669672 13.404726 -2.647766 -34.933547 -0.024989 9.164279 -2.568610 -0.225959 -0.159318 0.212423 0.000000 0.000000 0.000000 0.000000 0.000000 0.000000 0.000000 19.998267 0.107422 0.806988 57.540787 16.038090 -17.017054 3.145786 13.682682 0.006672 -2.584710 7.724374 -0.180796 0.070751 -0.072550 -0.000000 0.000000 0.000000 0.000000 0.000000 0.000000 0.000000 
-9.669175 16.823004 -0.041355 -45.050517 86.851126 -19.591234 -12.568954 1.562928 -2.562124 -1.074939 7.128876 -14.378777 0.256997 1.938414 40.973044 1.176765 2.420091 16.787866 0.435900 0.000000 -62.198200 7.227926 -0.839399 1.534070 11.976952 8.085997 -45.191688 2.774067 -1.623027 27.671435 -1.215365 -3.178725 -8.002221 -0.383700 -0.000000 -25.817700 12.338946 -2.496135 3.639088 1.865972 -2.908065 -2.123853 -6.310579 -3.034827 0.785809 16.620472 4.194343 3.661159 -3.436466 -0.328493 2.719030 0.000000 0.000000 0.000000 -5.459633 -5.869382 1.367676 -65.612751 -24.218362 12.990411 -2.653528 -33.657670 -0.024739 9.299791 -2.385323 -0.213304 -0.157353 0.203567 0.000000 0.000000 0.000000 0.000000 0.000000 0.000000 0.000000 19.906193 0.398098 0.782969 57.969437 16.618243 -18.536130 3.105537 12.100283 0.005773 -3.073243 7.533576 -0.208907 0.071247 -0.074284 -0.000000 0.000000 0.000000 0.000000 0.000000 0.000000 0.000000 
